<svg width="349" height="445" viewBox="0 0 349 445" fill="none" xmlns="http://www.w3.org/2000/svg">
<path d="M156.995 0H229.803V333.706C192.509 340.76 165.055 343.536 135.35 343.536C46.4238 343.443 0.133789 303.715 0.133789 227.415C0.133789 153.9 49.2348 106.189 125.323 106.189C137.13 106.189 146.125 107.118 156.995 109.902V0ZM159.546 170.039C151.019 167.254 143.992 166.326 134.996 166.326C98.1705 166.326 76.8998 188.789 76.8998 228.154C76.8998 266.481 97.2344 287.644 134.528 287.644C142.586 287.644 149.145 287.19 159.546 285.798V170.039Z" fill="#2BA977"/>
<path d="M348.866 115.148V282.23C348.866 339.769 344.555 367.44 331.905 391.296C320.098 414.232 304.544 428.694 272.403 444.668L204.842 412.831C236.983 397.894 252.537 384.696 262.471 364.554C272.87 343.957 276.15 320.1 276.15 257.353V115.149H348.866V115.148ZM268.813 0H341.621V73.9797H268.813V0Z" fill="#2BA977"/>
</svg>
