<svg width="463" height="463" viewBox="0 0 463 463" fill="none" xmlns="http://www.w3.org/2000/svg">
<path d="M454.269 210.875L252.118 8.7316C240.484 -2.91053 221.602 -2.91053 209.953 8.7316L167.975 50.7098L221.226 103.961C233.6 99.7797 247.79 102.585 257.655 112.449C267.566 122.377 270.351 136.688 266.068 149.103L317.387 200.424C329.803 196.147 344.129 198.914 354.046 208.847C367.905 222.701 367.905 245.155 354.046 259.018C340.183 272.883 317.729 272.883 303.859 259.018C293.434 248.583 290.859 233.273 296.136 220.43L248.277 172.57L248.272 298.517C251.741 300.233 254.91 302.499 257.655 305.227C271.514 319.081 271.514 341.537 257.655 355.411C243.792 369.269 221.327 369.269 207.484 355.411C193.625 341.537 193.625 319.083 207.484 305.229C210.805 301.906 214.752 299.274 219.097 297.486V170.365C214.746 168.589 210.797 165.956 207.484 162.622C196.983 152.136 194.459 136.728 199.839 123.834L147.346 71.3354L8.73552 209.94C-2.91184 221.593 -2.91184 240.476 8.73552 252.12L210.89 454.267C222.528 465.911 241.406 465.911 253.059 454.267L454.267 253.059C465.911 241.411 465.911 222.517 454.267 210.875" fill="#DE4C36"/>
</svg>
