<svg width="487" height="434" viewBox="0 0 487 434" fill="none" xmlns="http://www.w3.org/2000/svg">
<path d="M486.345 216.684C486.345 184.454 445.998 153.91 384.139 134.969C398.414 71.8974 392.07 21.718 364.114 5.65262C357.671 1.8842 350.137 0.0991673 341.909 0.0991673V22.2138C346.469 22.2138 350.137 23.1063 353.21 24.7922C366.692 32.5274 372.541 61.9805 367.981 99.863C366.89 109.185 365.106 119.003 362.925 129.019C343.495 124.259 322.28 120.589 299.975 118.209C286.593 99.863 272.714 83.2026 258.736 68.6248C291.054 38.5767 321.388 22.1146 342.008 22.1146V0C314.746 0 279.059 19.4371 242.974 53.1545C206.89 19.6354 171.202 0.396677 143.941 0.396677V22.5113C164.461 22.5113 194.895 38.8742 227.212 68.724C213.334 83.3018 199.455 99.863 186.27 118.209C163.866 120.589 142.652 124.259 123.222 129.118C120.942 119.201 119.257 109.582 118.067 100.359C113.408 62.4763 119.157 33.0232 132.54 25.1889C135.514 23.4038 139.381 22.6105 143.941 22.6105V0.495844C135.614 0.495844 128.079 2.28088 121.537 6.0493C93.6804 22.1146 87.435 72.1949 101.809 135.068C40.1487 154.108 0 184.553 0 216.684C0 248.914 40.347 279.458 102.206 298.399C87.9307 361.47 94.2752 411.65 122.231 427.715C128.674 431.483 136.208 433.269 144.535 433.269C171.797 433.269 207.485 413.831 243.569 380.114C279.653 413.633 315.341 432.872 342.603 432.872C350.93 432.872 358.464 431.087 365.007 427.318C392.863 411.253 399.108 361.173 384.734 298.3C446.196 279.358 486.345 248.815 486.345 216.684ZM357.274 150.538C353.606 163.331 349.046 176.52 343.891 189.71C339.827 181.776 335.564 173.843 330.905 165.909C326.345 157.976 321.487 150.241 316.63 142.704C330.707 144.786 344.288 147.365 357.274 150.538ZM311.871 256.153C304.139 269.541 296.208 282.234 287.98 294.035C273.21 295.325 258.241 296.019 243.172 296.019C228.203 296.019 213.234 295.325 198.563 294.135C190.335 282.334 182.305 269.739 174.573 256.451C167.039 243.459 160.198 230.27 153.953 216.981C160.099 203.693 167.039 190.404 174.474 177.413C182.206 164.025 190.136 151.332 198.364 139.531C213.135 138.241 228.104 137.547 243.172 137.547C258.142 137.547 273.111 138.241 287.782 139.431C296.01 151.232 304.04 163.827 311.772 177.115C319.306 190.107 326.147 203.296 332.392 216.585C326.147 229.873 319.306 243.162 311.871 256.153ZM343.891 243.261C349.244 256.55 353.805 269.838 357.572 282.73C344.585 285.904 330.905 288.581 316.729 290.664C321.586 283.028 326.444 275.193 331.004 267.161C335.564 259.227 339.827 251.195 343.891 243.261ZM243.371 349.074C234.151 339.554 224.932 328.943 215.812 317.34C224.734 317.737 233.854 318.034 243.073 318.034C252.392 318.034 261.611 317.836 270.632 317.34C261.71 328.943 252.491 339.554 243.371 349.074ZM169.616 290.664C155.539 288.581 141.958 286.003 128.972 282.829C132.64 270.037 137.2 256.847 142.355 243.658C146.419 251.591 150.682 259.525 155.341 267.458C160 275.392 164.758 283.127 169.616 290.664ZM242.875 84.2935C252.094 93.8137 261.314 104.425 270.434 116.027C261.512 115.631 252.392 115.333 243.172 115.333C233.854 115.333 224.635 115.532 215.614 116.027C224.536 104.425 233.755 93.8137 242.875 84.2935ZM169.517 142.704C164.659 150.34 159.802 158.174 155.242 166.207C150.682 174.14 146.419 182.074 142.355 190.007C137.001 176.719 132.441 163.43 128.674 150.538C141.661 147.464 155.341 144.786 169.517 142.704ZM79.8018 266.863C44.7089 251.889 22.0075 232.253 22.0075 216.684C22.0075 201.114 44.7089 181.38 79.8018 166.504C88.3272 162.835 97.6457 159.563 107.262 156.488C112.912 175.925 120.347 196.156 129.566 216.882C120.446 237.509 113.11 257.641 107.559 276.978C97.7448 273.904 88.4264 270.533 79.8018 266.863ZM133.135 408.575C119.653 400.84 113.804 371.387 118.364 333.505C119.455 324.183 121.239 314.365 123.42 304.349C142.85 309.109 164.065 312.778 186.369 315.158C199.752 333.505 213.631 350.165 227.609 364.743C195.291 394.791 164.957 411.253 144.337 411.253C139.876 411.154 136.109 410.261 133.135 408.575ZM368.278 333.009C372.937 370.891 367.187 400.344 353.805 408.179C350.831 409.964 346.964 410.757 342.404 410.757C321.884 410.757 291.45 394.394 259.133 364.545C273.011 349.967 286.89 333.406 300.075 315.059C322.479 312.679 343.693 309.01 363.123 304.151C365.403 314.167 367.187 323.786 368.278 333.009ZM406.444 266.863C397.919 270.533 388.6 273.805 378.984 276.879C373.334 257.442 365.899 237.212 356.679 216.485C365.8 195.858 373.135 175.727 378.687 156.389C388.501 159.463 397.819 162.835 406.543 166.504C441.636 181.479 464.337 201.114 464.337 216.684C464.238 232.253 441.537 251.988 406.444 266.863Z" fill="#61DAFB"/>
<path d="M243.073 262.004C268.094 262.004 288.377 241.713 288.377 216.684C288.377 191.654 268.094 171.364 243.073 171.364C218.053 171.364 197.77 191.654 197.77 216.684C197.77 241.713 218.053 262.004 243.073 262.004Z" fill="#61DAFB"/>
</svg>
